{"asset":{"version":"2.0","generator":"THREE.GLTFExporter"},"scenes":[{"name":"AuxScene","nodes":[12]}],"scene":0,"nodes":[{"matrix":[1,0,0,0,0,1,0,0,0,0,1,0,1.0771169662475586,-0.1401938647031784,0.20608708262443542,1],"name":"backbone_22","mesh":0},{"matrix":[0.638196102342822,-0.2026453722220453,0.2040602189615612,0,0.08684802159663395,-0.015238806760824982,-0.2867493862605651,0,0.2040602189615612,0.6690818632933305,0.0262466719794433,0,0.618782103061676,0.43139752745628357,-0.1723480224609375,1],"name":"nucleoside_22","mesh":1},{"matrix":[-0.006789845661870686,-0.5558124036974732,-0.8312800973406098,0,0.45833462536599473,-0.5715911531732777,0.378434937172356,0,-0.8312800973406098,-0.45891979447310405,0.3136337208682036,0,0.8479495048522949,0.1456023007631302,0.01686962880194187,1],"name":"connector_22","mesh":2},{"matrix":[0,0,0,0,0,0,0,0,0,0,0,0,1.0056464672088623,0.23724371194839478,0.37489214539527893,1],"name":"bbconnector_22","mesh":3},{"name":"element_22","children":[0,1,2,3]},{"name":"strand_1","children":[4]},{"matrix":[1,0,0,0,0,1,0,0,0,0,1,0,-0.24340423941612244,1.1705485582351685,-0.9013268351554871,1],"name":"backbone_30","mesh":0},{"matrix":[0.689563281778421,0.09491586155995073,0.07411776501520236,0,-0.04067822869198962,0.0699451561116087,0.28888226884757257,0,0.07411776501520236,-0.6740585890471708,0.17364206129650148,0,0.21307185292243958,0.6167126297950745,-0.49525487422943115,1],"name":"nucleoside_30","mesh":1},{"matrix":[0.8166888192496327,0.5535590398526757,-0.16306987026935893,0,-0.4564764540356178,0.5538363020113632,-0.40607210010814365,0,-0.16306987026935893,0.4924347791864072,0.8549363847812526,0,-0.015166192315518856,0.8936310410499573,-0.6982901692390442,1],"name":"connector_30","mesh":2},{"matrix":[0,0,0,0,0,0,0,0,0,0,0,0,-1.4330004738383195e-8,7.611083674419206e-8,1.2681466341018677,1],"name":"bbconnector_30","mesh":3},{"name":"element_30","children":[6,7,8,9]},{"name":"strand_0","children":[10]},{"name":"system_0","children":[5,11]}],"bufferViews":[{"buffer":0,"byteOffset":0,"byteLength":1452,"target":34962,"byteStride":12},{"buffer":0,"byteOffset":1452,"byteLength":1452,"target":34962,"byteStride":12},{"buffer":0,"byteOffset":2904,"byteLength":968,"target":34962,"byteStride":8},{"buffer":0,"byteOffset":3872,"byteLength":1080,"target":34963},{"buffer":0,"byteOffset":4952,"byteLength":1452,"target":34962,"byteStride":12},{"buffer":0,"byteOffset":6404,"byteLength":1452,"target":34962,"byteStride":12},{"buffer":0,"byteOffset":7856,"byteLength":968,"target":34962,"byteStride":8},{"buffer":0,"byteOffset":8824,"byteLength":1080,"target":34963},{"buffer":0,"byteOffset":9904,"byteLength":624,"target":34962,"byteStride":12},{"buffer":0,"byteOffset":10528,"byteLength":624,"target":34962,"byteStride":12},{"buffer":0,"byteOffset":11152,"byteLength":416,"target":34962,"byteStride":8},{"buffer":0,"byteOffset":11568,"byteLength":192,"target":34963},{"buffer":0,"byteOffset":11760,"byteLength":624,"target":34962,"byteStride":12},{"buffer":0,"byteOffset":12384,"byteLength":624,"target":34962,"byteStride":12},{"buffer":0,"byteOffset":13008,"byteLength":416,"target":34962,"byteStride":8},{"buffer":0,"byteOffset":13424,"byteLength":192,"target":34963}],"buffers":[{"byteLength":13616,"uri":"data:application/octet-stream;base64,"}],"accessors":[{"bufferView":0,"componentType":5126,"count":121,"max":[0.20000000298023224,0.20000000298023224,0.19021129608154297],"min":[-0.20000000298023224,-0.20000000298023224,-0.19021129608154297],"type":"VEC3"},{"bufferView":1,"componentType":5126,"count":121,"max":[1,1,0.9510565400123596],"min":[-1,-1,-0.9510565400123596],"type":"VEC3"},{"bufferView":2,"componentType":5126,"count":121,"max":[1.0499999523162842,1],"min":[-0.05000000074505806,0],"type":"VEC2"},{"bufferView":3,"componentType":5123,"count":540,"max":[120],"min":[0],"type":"SCALAR"},{"bufferView":4,"componentType":5126,"count":121,"max":[0.30000001192092896,0.30000001192092896,0.28531694412231445],"min":[-0.30000001192092896,-0.30000001192092896,-0.28531694412231445],"type":"VEC3"},{"bufferView":5,"componentType":5126,"count":121,"max":[1,1,0.9510565400123596],"min":[-1,-1,-0.9510565400123596],"type":"VEC3"},{"bufferView":6,"componentType":5126,"count":121,"max":[1.0499999523162842,1],"min":[-0.05000000074505806,0],"type":"VEC2"},{"bufferView":7,"componentType":5123,"count":540,"max":[120],"min":[0],"type":"SCALAR"},{"bufferView":8,"componentType":5126,"count":52,"max":[0.10000000149011612,0.5,0.10000000149011612],"min":[-0.10000000149011612,-0.5,-0.10000000149011612],"type":"VEC3"},{"bufferView":9,"componentType":5126,"count":52,"max":[1,1,1],"min":[-1,-1,-1],"type":"VEC3"},{"bufferView":10,"componentType":5126,"count":52,"max":[1,1],"min":[0,0],"type":"VEC2"},{"bufferView":11,"componentType":5123,"count":96,"max":[51],"min":[0],"type":"SCALAR"},{"bufferView":12,"componentType":5126,"count":52,"max":[0.10000000149011612,0.5,0.10000000149011612],"min":[-0.10000000149011612,-0.5,-0.10000000149011612],"type":"VEC3"},{"bufferView":13,"componentType":5126,"count":52,"max":[0.9987523555755615,1,0.9987523555755615],"min":[-0.9987523555755615,-1,-0.9987523555755615],"type":"VEC3"},{"bufferView":14,"componentType":5126,"count":52,"max":[1,1],"min":[0,0],"type":"VEC2"},{"bufferView":15,"componentType":5123,"count":96,"max":[51],"min":[0],"type":"SCALAR"}],"materials":[{"pbrMetallicRoughness":{"baseColorFactor":[0.6901960784313725,0.6901960784313725,0.6901960784313725,1],"metallicFactor":0.5,"roughnessFactor":0.8}},{"pbrMetallicRoughness":{"baseColorFactor":[0.5333333333333333,0.5333333333333333,0.5333333333333333,1],"metallicFactor":0.5,"roughnessFactor":0.8}}],"meshes":[{"primitives":[{"mode":4,"attributes":{"POSITION":0,"NORMAL":1,"TEXCOORD_0":2},"indices":3,"material":0}]},{"primitives":[{"mode":4,"attributes":{"POSITION":4,"NORMAL":5,"TEXCOORD_0":6},"indices":7,"material":1}]},{"primitives":[{"mode":4,"attributes":{"POSITION":8,"NORMAL":9,"TEXCOORD_0":10},"indices":11,"material":0}]},{"primitives":[{"mode":4,"attributes":{"POSITION":12,"NORMAL":13,"TEXCOORD_0":14},"indices":15,"material":0}]}]}