{"asset":{"version":"2.0","generator":"THREE.GLTFExporter"},"scenes":[{"name":"AuxScene","nodes":[44]}],"scene":0,"nodes":[{"matrix":[1,0,0,0,0,1,0,0,0,0,1,0,-0.6331984996795654,-0.24772444367408752,-0.039092496037483215,1],"name":"backbone_70","mesh":0},{"matrix":[0.6920345398567823,-0.0629951874986003,0.08437882545196325,0,0.026997939031973936,-0.08648536614161569,-0.2859919895991898,0,0.08437882545196325,0.667314604517109,-0.1938337279860828,0,-0.4898032248020172,0.45399555563926697,-0.4479670226573944,1],"name":"nucleoside_70","mesh":1},{"matrix":[0.797284749216459,0.17387293081958433,0.5780183668781547,0,-0.14337928423032778,-0.7016417969005493,0.4088289331692538,0,0.5780183668781547,-0.49577793051184926,-0.6481504531952851,0,-0.5615008473396301,0.10313555598258972,-0.2435297667980194,1],"name":"connector_70","mesh":2},{"matrix":[0.08816488413140178,-0.9332998637091805,0.3481068817718551,0,0.7531867686507562,-0.03609792884683238,-0.28754046961338753,0,0.3481068817718551,0.3563013747331034,0.8671049194881117,0,-0.2566051483154297,-0.26577338576316833,-0.18286272883415222,1],"name":"bbconnector_70","mesh":3},{"name":"element_70","children":[0,1,2,3]},{"matrix":[1,0,0,0,0,1,0,0,0,0,1,0,0.11998821794986725,-0.28382232785224915,-0.32663294672966003,1],"name":"backbone_69","mesh":0},{"matrix":[0.6986055624576611,0.03566090602188391,0.026049017611736537,0,-0.01528324630552399,0.09085221365562259,0.285503612429724,0,0.026049017611736537,-0.6661750578530433,0.21338291211738772,0,0.6680763363838196,-0.760003387928009,0.06425146758556366,1],"name":"nucleoside_69","mesh":1},{"matrix":[0.7199300045484733,0.6646839870444126,-0.19973975924146714,0,-0.5481124281540777,0.47620218413246096,-0.3909017253356572,0,-0.19973975924146714,0.4740379965724948,0.8575499979656183,0,0.3940322697162628,-0.5219128727912903,-0.13119074702262878,1],"name":"connector_69","mesh":2},{"matrix":[0,0,0,0,0,0,0,0,0,0,0,0,-8.801888107257128e-9,-1.7383646744306702e-9,-6.489080988103524e-7,1],"name":"bbconnector_69","mesh":3},{"name":"element_69","children":[5,6,7,8]},{"name":"strand_0","children":[4,9]},{"matrix":[1,0,0,0,0,1,0,0,0,0,1,0,-1.1056793928146362,1.858879566192627,-0.7919535040855408,1],"name":"backbone_109","mesh":0},{"matrix":[0.6997304753194712,0.015689512716534747,0.01144921029801081,0,-0.006724077260216055,0.09143783070012888,0.2856464930513163,0,0.01144921029801081,-0.6665084459511668,0.21362443894852456,0,-0.8269907832145691,1.2092416286468506,-0.3672785460948944,1],"name":"nucleoside_109","mesh":1},{"matrix":[0.9361166845524007,0.33794824348953867,-0.09734752325920581,0,-0.27867924598743143,0.6496161091456633,-0.4246607144688967,0,-0.09734752325920581,0.5149767863956711,0.8516586025896729,0,-0.9663350582122803,1.5340605974197388,-0.5796160101890564,1],"name":"connector_109","mesh":2},{"matrix":[0.053508435823339084,-0.800052198242355,0.5975394786322425,0,0.5528200816905684,-0.22369127585602808,-0.34900662181618786,0,0.5975394786322425,0.5050893124781055,0.6227611084577518,0,-0.8292694091796875,1.747033953666687,-0.9664567708969116,1],"name":"bbconnector_109","mesh":3},{"name":"element_109","children":[11,12,13,14]},{"matrix":[1,0,0,0,0,1,0,0,0,0,1,0,-0.552859365940094,1.635188341140747,-1.1409600973129272,1],"name":"backbone_108","mesh":0},{"matrix":[0.6883530527321826,-0.10223941174422478,-0.07561190745726325,0,0.043816893234848955,0.08463451716477453,0.284459282863909,0,-0.07561190745726325,-0.6637382890044681,0.20912746418778425,0,-0.6833651065826416,0.9473344683647156,-0.7052721381187439,1],"name":"nucleoside_108","mesh":1},{"matrix":[0.9863441989418789,-0.15826160491656083,0.045589327207835595,0,0.1305058557828344,0.6878544713857133,-0.4356884035216633,0,0.045589327207835595,0.528349824391114,0.8478019160928625,0,-0.6181122064590454,1.2912614345550537,-0.923116147518158,1],"name":"connector_108","mesh":2},{"matrix":[0,0,0,0,0,0,0,0,0,0,0,0,-8.801888107257128e-9,-1.7383646744306702e-9,-6.489080988103524e-7,1],"name":"bbconnector_108","mesh":3},{"name":"element_108","children":[16,17,18,19]},{"name":"strand_2","children":[15,20]},{"matrix":[1,0,0,0,0,1,0,0,0,0,1,0,-0.3457901179790497,-0.37163570523262024,0.06756262481212616,1],"name":"backbone_144","mesh":0},{"matrix":[0.6786736103102968,0.13458676507574602,0.1062474371740627,0,-0.057680045449603985,0.06400789745908152,0.2873604262078169,0,0.1062474371740627,-0.6705076230893161,0.17067813002848037,0,0.2714645564556122,-0.7303950190544128,0.48027852177619934,1],"name":"nucleoside_144","mesh":1},{"matrix":[0.6095863380523667,0.7485059081918877,-0.2610428591991294,0,-0.6172337514117303,0.35874716979530064,-0.4127019081733226,0,-0.2610428591991294,0.5004746028279605,0.8254585303216242,0,-0.03716278821229935,-0.5510153770446777,0.27392056584358215,1],"name":"connector_144","mesh":2},{"matrix":[0.9844125571228605,-0.17267032230425094,-0.033419692682085334,0,0.11801464740832171,0.6238424794253071,0.25302503299980267,0,-0.033419692682085334,-0.3702075543890402,0.9283477175975392,0,-0.28678280115127563,-0.05971446633338928,0.19407513737678528,1],"name":"bbconnector_144","mesh":3},{"name":"element_144","children":[22,23,24,25]},{"matrix":[1,0,0,0,0,1,0,0,0,0,1,0,-0.2277754694223404,0.2522067725658417,0.3205876648426056,1],"name":"backbone_143","mesh":0},{"matrix":[0.6571619063528785,-0.15663658621971568,0.18331172993075806,0,0.06712996933345702,-0.054540609346174,-0.28726101433227,0,0.18331172993075806,0.6702756620595411,-0.08442333285738346,0,-0.4734310805797577,0.9328672289848328,-0.07473321259021759,1],"name":"nucleoside_143","mesh":1},{"matrix":[0.49146774231223134,-0.29791784576357827,-0.8183546772530832,0,0.24566933612768996,-0.6806984307470745,0.3953429644598738,0,-0.8183546772530832,-0.47942379039301386,-0.3169358829409532,0,-0.35060328245162964,0.592536985874176,0.122927226126194,1],"name":"connector_143","mesh":2},{"matrix":[0,0,0,0,0,0,0,0,0,0,0,0,-8.801888107257128e-9,-1.7383646744306702e-9,-6.489080988103524e-7,1],"name":"bbconnector_143","mesh":3},{"name":"element_143","children":[27,28,29,30]},{"name":"strand_3","children":[26,31]},{"matrix":[1,0,0,0,0,1,0,0,0,0,1,0,1.3015002012252808,-1.6896800994873047,0.766937792301178,1],"name":"backbone_173","mesh":0},{"matrix":[0.6535184756955995,-0.16575419430970892,0.18825284379340632,0,0.0710375158795569,-0.04667852507267243,-0.2877060941997487,0,0.18825284379340632,0.6713141816913717,-0.062435039936637925,0,0.791807234287262,-1.1918975114822388,0.3516278564929962,1],"name":"nucleoside_173","mesh":1},{"matrix":[0.036247090100204105,-0.6180677048487127,-0.7852887641990804,0,0.5096716591212388,-0.4977617756332621,0.4152925747121496,0,-0.7852887641990804,-0.5036162476359962,0.36012806099704875,0,1.0466537475585938,-1.440788745880127,0.5592828392982483,1],"name":"connector_173","mesh":2},{"matrix":[0.9985386649052409,-0.05103532955036716,-0.017774417163257894,0,0.028601291204693447,0.4384434550610074,0.34788138812463526,0,-0.017774417163257894,-0.6207496423960919,0.7838073508077912,0,1.3158009052276611,-1.4704583883285522,0.9408785104751587,1],"name":"bbconnector_173","mesh":3},{"name":"element_173","children":[33,34,35,36]},{"matrix":[1,0,0,0,0,1,0,0,0,0,1,0,1.330101490020752,-1.2512366771697998,1.1148191690444946,1],"name":"backbone_172","mesh":0},{"matrix":[0.645545608485589,-0.19585019977595997,0.18685167001132832,0,0.0839358046687101,0.0018828791475730211,-0.2880125601131696,0,0.18685167001132832,0.6720292687820943,0.05884776402175621,0,0.72103351354599,-0.8484264612197876,0.7317853569984436,1],"name":"nucleoside_172","mesh":1},{"matrix":[-0.06664730378174255,-0.7386388291986989,-0.6707985934133376,0,0.6090971500625791,-0.40282949480895786,0.3830521204764182,0,-0.6707985934133376,-0.46451895196310033,0.5781447613189812,0,1.0255675315856934,-1.0498316287994385,0.9233022332191467,1],"name":"connector_172","mesh":2},{"matrix":[0,0,0,0,0,0,0,0,0,0,0,0,-8.801888107257128e-9,-1.7383646744306702e-9,-6.489080988103524e-7,1],"name":"bbconnector_172","mesh":3},{"name":"element_172","children":[38,39,40,41]},{"name":"strand_4","children":[37,42]},{"name":"system_0","children":[10,21,32,43]}],"bufferViews":[{"buffer":0,"byteOffset":0,"byteLength":1452,"target":34962,"byteStride":12},{"buffer":0,"byteOffset":1452,"byteLength":1452,"target":34962,"byteStride":12},{"buffer":0,"byteOffset":2904,"byteLength":968,"target":34962,"byteStride":8},{"buffer":0,"byteOffset":3872,"byteLength":1080,"target":34963},{"buffer":0,"byteOffset":4952,"byteLength":1452,"target":34962,"byteStride":12},{"buffer":0,"byteOffset":6404,"byteLength":1452,"target":34962,"byteStride":12},{"buffer":0,"byteOffset":7856,"byteLength":968,"target":34962,"byteStride":8},{"buffer":0,"byteOffset":8824,"byteLength":1080,"target":34963},{"buffer":0,"byteOffset":9904,"byteLength":624,"target":34962,"byteStride":12},{"buffer":0,"byteOffset":10528,"byteLength":624,"target":34962,"byteStride":12},{"buffer":0,"byteOffset":11152,"byteLength":416,"target":34962,"byteStride":8},{"buffer":0,"byteOffset":11568,"byteLength":192,"target":34963},{"buffer":0,"byteOffset":11760,"byteLength":624,"target":34962,"byteStride":12},{"buffer":0,"byteOffset":12384,"byteLength":624,"target":34962,"byteStride":12},{"buffer":0,"byteOffset":13008,"byteLength":416,"target":34962,"byteStride":8},{"buffer":0,"byteOffset":13424,"byteLength":192,"target":34963}],"buffers":[{"byteLength":13616,"uri":"data:application/octet-stream;base64,"}],"accessors":[{"bufferView":0,"componentType":5126,"count":121,"max":[0.20000000298023224,0.20000000298023224,0.19021129608154297],"min":[-0.20000000298023224,-0.20000000298023224,-0.19021129608154297],"type":"VEC3"},{"bufferView":1,"componentType":5126,"count":121,"max":[1,1,0.9510565400123596],"min":[-1,-1,-0.9510565400123596],"type":"VEC3"},{"bufferView":2,"componentType":5126,"count":121,"max":[1.0499999523162842,1],"min":[-0.05000000074505806,0],"type":"VEC2"},{"bufferView":3,"componentType":5123,"count":540,"max":[120],"min":[0],"type":"SCALAR"},{"bufferView":4,"componentType":5126,"count":121,"max":[0.30000001192092896,0.30000001192092896,0.28531694412231445],"min":[-0.30000001192092896,-0.30000001192092896,-0.28531694412231445],"type":"VEC3"},{"bufferView":5,"componentType":5126,"count":121,"max":[1,1,0.9510565400123596],"min":[-1,-1,-0.9510565400123596],"type":"VEC3"},{"bufferView":6,"componentType":5126,"count":121,"max":[1.0499999523162842,1],"min":[-0.05000000074505806,0],"type":"VEC2"},{"bufferView":7,"componentType":5123,"count":540,"max":[120],"min":[0],"type":"SCALAR"},{"bufferView":8,"componentType":5126,"count":52,"max":[0.10000000149011612,0.5,0.10000000149011612],"min":[-0.10000000149011612,-0.5,-0.10000000149011612],"type":"VEC3"},{"bufferView":9,"componentType":5126,"count":52,"max":[1,1,1],"min":[-1,-1,-1],"type":"VEC3"},{"bufferView":10,"componentType":5126,"count":52,"max":[1,1],"min":[0,0],"type":"VEC2"},{"bufferView":11,"componentType":5123,"count":96,"max":[51],"min":[0],"type":"SCALAR"},{"bufferView":12,"componentType":5126,"count":52,"max":[0.10000000149011612,0.5,0.10000000149011612],"min":[-0.10000000149011612,-0.5,-0.10000000149011612],"type":"VEC3"},{"bufferView":13,"componentType":5126,"count":52,"max":[0.9987523555755615,1,0.9987523555755615],"min":[-0.9987523555755615,-1,-0.9987523555755615],"type":"VEC3"},{"bufferView":14,"componentType":5126,"count":52,"max":[1,1],"min":[0,0],"type":"VEC2"},{"bufferView":15,"componentType":5123,"count":96,"max":[51],"min":[0],"type":"SCALAR"}],"materials":[{"pbrMetallicRoughness":{"baseColorFactor":[0.20784313725490197,0.33725490196078434,0.7843137254901961,1],"metallicFactor":0.5,"roughnessFactor":0.2}},{"pbrMetallicRoughness":{"baseColorFactor":[0.5333333333333333,0.5333333333333333,0.5333333333333333,1],"metallicFactor":0.5,"roughnessFactor":0.2}}],"meshes":[{"primitives":[{"mode":4,"attributes":{"POSITION":0,"NORMAL":1,"TEXCOORD_0":2},"indices":3,"material":0}]},{"primitives":[{"mode":4,"attributes":{"POSITION":4,"NORMAL":5,"TEXCOORD_0":6},"indices":7,"material":1}]},{"primitives":[{"mode":4,"attributes":{"POSITION":8,"NORMAL":9,"TEXCOORD_0":10},"indices":11,"material":0}]},{"primitives":[{"mode":4,"attributes":{"POSITION":12,"NORMAL":13,"TEXCOORD_0":14},"indices":15,"material":0}]}]}