{"asset":{"version":"2.0","generator":"THREE.GLTFExporter"},"scenes":[{"name":"AuxScene","nodes":[66]}],"scene":0,"nodes":[{"matrix":[1,0,0,0,0,1,0,0,0,0,1,0,-0.21365001797676086,1.1532732248306274,-0.9309619665145874,1],"name":"backbone_12","mesh":0},{"matrix":[0.6978952505581701,0.04389654507811062,0.03186370946448293,0,-0.018812806101409865,0.09236109896615646,0.2848078593526447,0,0.03186370946448293,-0.6645516340986807,0.21761395620826532,0,0.3161906898021698,0.6668362021446228,-0.5277829170227051,1],"name":"nucleoside_12","mesh":1},{"matrix":[0.7403051011366344,0.6425709242460727,-0.19761323776657846,0,-0.5298775303973008,0.4864707941851227,-0.40320705127389184,0,-0.19761323776657846,0.4889603969531109,0.8496274208253265,0,0.05127033591270447,0.9100546836853027,-0.7293724417686462,1],"name":"connector_12","mesh":2},{"matrix":[-0.03876138206442192,-0.9012718600627068,0.4315166375622823,0,0.7537476376918197,-0.1823332494520632,-0.3131177687226688,0,0.4315166375622823,0.3744014836312459,0.8207416912987338,0,0.16322378814220428,1.0621066093444824,-1.0875208377838135,1],"name":"bbconnector_12","mesh":3},{"name":"element_12","children":[0,1,2,3]},{"matrix":[1,0,0,0,0,1,0,0,0,0,1,0,0.5400975942611694,0.9709399938583374,-1.2440797090530396,1],"name":"backbone_11","mesh":0},{"matrix":[0.6937414061690289,-0.07523612806361724,-0.05533867885845032,0,0.032244056714784024,0.08761465192588822,0.28510348275062947,0,-0.05533867885845032,-0.6652414219881552,0.21069275813213684,0,0.43530309200286865,0.27835923433303833,-0.8089183568954468,1],"name":"nucleoside_11","mesh":4},{"matrix":[0.9912224840535373,-0.1270805674343194,0.03644881715935355,0,0.10479331493654394,0.69257287009957,-0.4351564154302588,0,0.03644881715935355,0.5277046940355667,0.8486455301911047,0,0.48770034313201904,0.6246496438980103,-1.0264990329742432,1],"name":"connector_11","mesh":2},{"matrix":[0.3892015994651672,-0.695511894568682,0.603974568321064,0,0.27989458082299234,-0.0837155695918198,-0.2767676020106594,0,0.603974568321064,0.6877416442421236,0.4027730281231925,0,0.6800448894500732,0.9290821552276611,-1.3824634552001953,1],"name":"bbconnector_11","mesh":3},{"name":"element_11","children":[5,6,7,8]},{"matrix":[1,0,0,0,0,1,0,0,0,0,1,0,0.819992184638977,0.8872243762016296,-1.5208473205566406,1],"name":"backbone_10","mesh":0},{"matrix":[0.6963700490813471,0.07000188602649703,0.012979749986536835,0,-0.030000810000105918,0.278553325988931,0.10727536012013894,0,0.012979749986536835,-0.25030915940452536,0.6535876627428487,0,1.2268120050430298,1.356025218963623,-2.0638844966888428,1],"name":"nucleoside_10","mesh":4},{"matrix":[0.43617645222263945,0.4932812653372878,0.752611232442348,0,-0.40677013043323246,-0.4687435927074009,0.5429708822785395,0,0.752611232442348,-0.6584489465005703,-0.00461158359078695,0,1.0234020948410034,1.1216248273849487,-1.7923659086227417,1],"name":"connector_10","mesh":2},{"matrix":[0.9967486454194655,0.03950730673898839,-0.07022328977025083,0,-0.030585168412000645,-0.402523525526001,-0.6605834863187288,0,-0.07022328977025083,0.8532852940075486,-0.5166941359394741,0,0.8046995997428894,0.6859626173973083,-1.8511390686035156,1],"name":"bbconnector_10","mesh":3},{"name":"element_10","children":[10,11,12,13]},{"matrix":[1,0,0,0,0,1,0,0,0,0,1,0,0.7894070148468018,0.4847008287906647,-2.1814308166503906,1],"name":"backbone_9","mesh":0},{"matrix":[0.6332285741317081,0.2950670002563444,0.044238203323663586,0,-0.12645729300266353,0.25882259136183655,0.08378201252443102,0,0.044238203323663586,-0.19549135145967927,0.6706907595093637,0,1.421529769897461,1.0126850605010986,-2.1454200744628906,1],"name":"nucleoside_9","mesh":4},{"matrix":[-0.6351363723049488,0.7667626011232898,-0.09315037894288336,0,-0.6322886052787388,-0.5281227654854455,-0.03602019023034576,0,-0.09315037894288336,0.043680899075826396,0.9946934131952729,0,1.1054683923721313,0.7486929297447205,-2.1634254455566406,1],"name":"connector_9","mesh":2},{"matrix":[0.8978758454913702,0.43362419834969046,-0.0760855975154584,0,-0.36960030766308477,0.7169894963061327,-0.2753634572129235,0,-0.0760855975154584,0.32306320074170003,0.9433139184638719,0,0.6046068668365479,0.8431955575942993,-2.319112539291382,1],"name":"bbconnector_9","mesh":3},{"name":"element_9","children":[15,16,17,18]},{"matrix":[1,0,0,0,0,1,0,0,0,0,1,0,0.41980671882629395,1.2016903162002563,-2.456794261932373,1],"name":"backbone_8","mesh":0},{"matrix":[0.6819949752160851,-0.1260254410630061,0.09487056761765435,0,0.05401090637871762,0.0780474045655553,-0.28458992974266323,0,0.09487056761765435,0.6640431317042564,0.20011561317819804,0,-0.130354642868042,0.7673296928405762,-2.891112804412842,1],"name":"nucleoside_8","mesh":1},{"matrix":[0.7084471944690858,-0.6671788007110777,-0.23016299672502072,0,0.5501697040976554,0.4343672362365099,0.43432512189977013,0,-0.23016299672502072,-0.5266966025020281,0.8183004791705741,0,0.14472603797912598,0.9845100045204163,-2.6739535331726074,1],"name":"connector_8","mesh":2},{"matrix":[0.2684561600921995,0.8888319809429674,0.3713609268703806,0,-0.6346346580239532,0.05707685964910368,0.3221659481919031,0,0.3713609268703806,-0.45120668136118525,0.8114823330022034,0,0.10248936712741852,1.2302286624908447,-2.2957112789154053,1],"name":"bbconnector_8","mesh":3},{"name":"element_8","children":[20,21,22,23]},{"matrix":[1,0,0,0,0,1,0,0,0,0,1,0,-0.2148279845714569,1.2587671279907227,-2.1346282958984375,1],"name":"backbone_7","mesh":0},{"matrix":[0.6997041016648957,-0.016523349413389895,0.011879912704451621,0,0.007081435864868482,0.09545257766459979,-0.28432140127584987,0,0.011879912704451621,0.6634165653172598,0.22301855498842652,0,-0.45174768567085266,0.6012920141220093,-2.572395086288452,1],"name":"nucleoside_7","mesh":1},{"matrix":[0.9540749623084639,-0.2872979930529791,-0.08485767633805619,0,0.2369119817016742,0.6574537039790496,0.43775250439376884,0,-0.08485767633805619,-0.53085291449975,0.8432048051465966,0,-0.3332878351211548,0.930029571056366,-2.3535118103027344,1],"name":"connector_7","mesh":2},{"matrix":[0.003194570166208166,0.7919382278456766,0.6105928627821271,0,-0.5472850503327116,-0.2562654141781267,0.3352392910783305,0,0.6105928627821271,-0.48510152053196975,0.6259815276661982,0,-0.48847049474716187,1.1306344270706177,-1.9670085906982422,1],"name":"bbconnector_7","mesh":3},{"name":"element_7","children":[25,26,27,28]},{"matrix":[1,0,0,0,0,1,0,0,0,0,1,0,-0.7621130347251892,1.0025017261505127,-1.7993890047073364,1],"name":"backbone_6","mesh":0},{"matrix":[0.6890054279235441,0.09946181171359414,-0.07334065085367171,0,-0.0426264931541469,0.08561873134521858,-0.28434559521357244,0,-0.07334065085367171,0.6634730178354079,0.2107715886204283,0,-0.5879911780357361,0.3273984491825104,-2.2397191524505615,1],"name":"nucleoside_6","mesh":1},{"matrix":[0.9754837630205446,0.21115788299188054,0.06199818129471968,0,-0.174125241808813,0.6751163847576025,0.4403387158761879,0,0.06199818129471968,-0.5339891567580466,0.8432151521836726,0,-0.6750521063804626,0.6649500727653503,-2.0195541381835938,1],"name":"connector_6","mesh":2},{"matrix":[0.0658816956999928,0.4518795980297483,0.8896428620777996,0,-0.3228556414888896,-0.5582913331349064,0.30748376903648855,0,0.8896428620777996,-0.430364609124112,0.1527150057946116,0,-0.9235408306121826,0.7233560681343079,-1.6456470489501953,1],"name":"bbconnector_6","mesh":3},{"name":"element_6","children":[30,31,32,33]},{"matrix":[1,0,0,0,0,1,0,0,0,0,1,0,-1.0849686861038208,0.44421038031578064,-1.4919052124023438,1],"name":"backbone_5","mesh":0},{"matrix":[0.6593225458059868,0.18243544763561395,-0.14836127884885728,0,-0.07818662485363057,0.05066148711447258,-0.2851670853414494,0,-0.14836127884885728,0.6653898280249773,0.15888757216316504,0,-0.577082097530365,-0.038036640733480453,-1.9272229671478271,1],"name":"nucleoside_5","mesh":1},{"matrix":[0.7606459688426224,0.6158972784694292,0.20515417652479684,0,-0.5078818797733586,0.48224256107280106,0.4353136995978172,0,0.20515417652479684,-0.5278954291151265,0.8241590670436878,0,-0.8310253620147705,0.20308686792850494,-1.7095640897750854,1],"name":"connector_5","mesh":2},{"matrix":[0.9966232249554132,0.026371894911237925,0.07776033981356889,0,-0.014774085056090357,-0.4448383439424086,0.3402174735441201,0,0.07776033981356889,-0.6072917155417201,-0.7906642782186282,0,-1.092355728149414,0.22179119288921356,-1.3217964172363281,1],"name":"bbconnector_5","mesh":3},{"name":"element_5","children":[35,36,37,38]},{"matrix":[1,0,0,0,0,1,0,0,0,0,1,0,-1.0997427701950073,-0.0006279867375269532,-1.151687741279602,1],"name":"backbone_4","mesh":0},{"matrix":[0.6370448181359188,0.2104675039976536,-0.19969305440282584,0,-0.09020036397648054,0.0015517764936105593,-0.28611448761039016,0,-0.19969305440282584,0.6676004331936843,0.06657598155603663,0,-0.49283134937286377,-0.386957585811615,-1.5545883178710938,1],"name":"nucleoside_4","mesh":1},{"matrix":[0.6310970055851612,0.736031012740284,0.24489772965270618,0,-0.6069466896346729,0.3863520193614525,0.40292398967249526,0,0.24489772965270618,-0.48861713432279785,0.8374236617835447,0,-0.7962870597839355,-0.19379279017448425,-1.3531379699707031,1],"name":"connector_4","mesh":2},{"matrix":[0.2863298583338221,-0.36567229043132343,-0.8856065449698391,0,0.25668024731972383,-0.5704220821320185,0.3185192902425687,0,-0.8856065449698391,-0.45376954255649693,-0.09896562389781849,0,-0.971402645111084,-0.2858390510082245,-0.9924280643463135,1],"name":"bbconnector_4","mesh":3},{"name":"element_4","children":[40,41,42,43]},{"matrix":[1,0,0,0,0,1,0,0,0,0,1,0,-0.8430625200271606,-0.5710501074790955,-0.8331684470176697,1],"name":"backbone_3","mesh":0},{"matrix":[0.6503713578261368,0.17172911586542178,-0.193716781864389,0,-0.07359819669165142,-0.04532941284495642,-0.2872778422750462,0,-0.193716781864389,0.6703149272571233,-0.056139993714534174,0,-0.12095659971237183,-0.548864483833313,-1.2309647798538208,1],"name":"nucleoside_3","mesh":1},{"matrix":[0.21218093006200434,0.8755719111360349,0.43399662867454936,0,-0.7220150561626392,-0.022182890882014875,0.39774627472715635,0,0.43399662867454936,-0.4823382323368719,0.7609183619841815,0,-0.48200955986976624,-0.5599572658538818,-1.0320665836334229,1],"name":"connector_3","mesh":2},{"matrix":[-0.47198858221645423,-0.879143552389337,-0.06582892902494208,0,1.0545967989415101,-0.5697161943489477,0.04716271489206648,0,-0.06582892902494208,-0.03931625503903735,0.9970560587568922,0,-0.3157641291618347,-0.8559081554412842,-0.8095871210098267,1],"name":"bbconnector_3","mesh":3},{"name":"element_3","children":[45,46,47,48]},{"matrix":[1,0,0,0,0,1,0,0,0,0,1,0,0.21153423190116882,-1.1407662630081177,-0.7860057353973389,1],"name":"backbone_2","mesh":0},{"matrix":[0.584217540326639,0.26040380868605145,-0.28439357683216543,0,-0.11160163862923705,-0.04899917553339492,-0.2741243582789328,0,-0.28439357683216543,0.6396234663417668,0.0014510446646846425,0,0.26726165413856506,-0.3449324667453766,-0.951206386089325,1],"name":"nucleoside_2","mesh":4},{"matrix":[0.7980330842685532,0.06840176175417767,0.5987189635247319,0,-0.05572727866852729,-0.7958317136168437,0.16520021808343902,0,0.5987189635247319,-0.2027729727535288,-0.7748669181083869,0,0.23939794301986694,-0.7428494095802307,-0.8686060309410095,1],"name":"connector_2","mesh":2},{"matrix":[0.6314130330125565,-0.6946324198097003,-0.34467865762281846,0,0.611095138181343,0.2719201384024776,0.571456591723037,0,-0.34467865762281846,-0.649575246672935,0.6776788447196633,0,0.5170817971229553,-1.0048061609268188,-0.5002774596214294,1],"name":"bbconnector_2","mesh":3},{"name":"element_2","children":[50,51,52,53]},{"matrix":[1,0,0,0,0,1,0,0,0,0,1,0,0.8226293921470642,-0.8688461184501648,-0.21454915404319763,1],"name":"backbone_1","mesh":0},{"matrix":[0.6827508009664863,-0.09276999454424706,0.12347087157445517,0,0.03975857134733962,-0.08616952665957296,-0.28459459711174645,0,0.12347087157445517,0.6640540222314991,-0.18381303034618812,0,0.5712537169456482,-0.13769382238388062,-0.47139784693717957,1],"name":"nucleoside_1","mesh":5},{"matrix":[0.07170906723506931,-0.30854798255008653,-0.9485019774662575,0,0.2513756804682067,-0.7311523911609799,0.2568487115357803,0,-0.9485019774662575,-0.31526578711729236,0.030846936554944193,0,0.6969415545463562,-0.5032699704170227,-0.3429735004901886,1],"name":"connector_1","mesh":2},{"matrix":[0.932094684733197,-0.3587430197965613,-0.05002947191767637,0,0.3585895985634413,0.8948524418785829,0.2641921060349,0,-0.05002947191767637,-0.2643051396500713,0.9631406164520793,0,1.0019241571426392,-0.4214198887348175,-0.08245310932397842,1],"name":"bbconnector_1","mesh":3},{"name":"element_1","children":[55,56,57,58]},{"matrix":[1,0,0,0,0,1,0,0,0,0,1,0,1.1812189817428589,0.026006340980529785,0.04964293912053108,1],"name":"backbone_0","mesh":0},{"matrix":[0.643092237130405,-0.18153671637702437,0.20851085602052394,0,0.07780145429237031,-0.051812007678810175,-0.2850656995525503,0,0.20851085602052394,0.6651532611976416,-0.06398692677247725,0,0.4467693567276001,0.2781721353530884,-0.1968081146478653,1],"name":"nucleoside_0","mesh":1},{"matrix":[-0.1769897297240277,-0.9014930157796357,-0.39494931380059484,0,0.7344511489137855,-0.2521663377852607,0.24645157893737263,0,-0.39494931380059484,-0.30250395478104863,0.8674712645894243,0,0.8139941692352295,0.15208923816680908,-0.07358258962631226,1],"name":"connector_0","mesh":2},{"matrix":[0,0,0,0,0,0,0,0,0,0,0,0,0,0,0,1],"name":"bbconnector_0","mesh":3},{"name":"element_0","children":[60,61,62,63]},{"name":"strand_1","children":[4,9,14,19,24,29,34,39,44,49,54,59,64]},{"name":"system_0","children":[65]}],"bufferViews":[{"buffer":0,"byteOffset":0,"byteLength":1452,"target":34962,"byteStride":12},{"buffer":0,"byteOffset":1452,"byteLength":1452,"target":34962,"byteStride":12},{"buffer":0,"byteOffset":2904,"byteLength":968,"target":34962,"byteStride":8},{"buffer":0,"byteOffset":3872,"byteLength":1080,"target":34963},{"buffer":0,"byteOffset":4952,"byteLength":1452,"target":34962,"byteStride":12},{"buffer":0,"byteOffset":6404,"byteLength":1452,"target":34962,"byteStride":12},{"buffer":0,"byteOffset":7856,"byteLength":968,"target":34962,"byteStride":8},{"buffer":0,"byteOffset":8824,"byteLength":1080,"target":34963},{"buffer":0,"byteOffset":9904,"byteLength":624,"target":34962,"byteStride":12},{"buffer":0,"byteOffset":10528,"byteLength":624,"target":34962,"byteStride":12},{"buffer":0,"byteOffset":11152,"byteLength":416,"target":34962,"byteStride":8},{"buffer":0,"byteOffset":11568,"byteLength":192,"target":34963},{"buffer":0,"byteOffset":11760,"byteLength":624,"target":34962,"byteStride":12},{"buffer":0,"byteOffset":12384,"byteLength":624,"target":34962,"byteStride":12},{"buffer":0,"byteOffset":13008,"byteLength":416,"target":34962,"byteStride":8},{"buffer":0,"byteOffset":13424,"byteLength":192,"target":34963}],"buffers":[{"byteLength":13616,"uri":"data:application/octet-stream;base64,"}],"accessors":[{"bufferView":0,"componentType":5126,"count":121,"max":[0.20000000298023224,0.20000000298023224,0.19021129608154297],"min":[-0.20000000298023224,-0.20000000298023224,-0.19021129608154297],"type":"VEC3"},{"bufferView":1,"componentType":5126,"count":121,"max":[1,1,0.9510565400123596],"min":[-1,-1,-0.9510565400123596],"type":"VEC3"},{"bufferView":2,"componentType":5126,"count":121,"max":[1.0499999523162842,1],"min":[-0.05000000074505806,0],"type":"VEC2"},{"bufferView":3,"componentType":5123,"count":540,"max":[120],"min":[0],"type":"SCALAR"},{"bufferView":4,"componentType":5126,"count":121,"max":[0.30000001192092896,0.30000001192092896,0.28531694412231445],"min":[-0.30000001192092896,-0.30000001192092896,-0.28531694412231445],"type":"VEC3"},{"bufferView":5,"componentType":5126,"count":121,"max":[1,1,0.9510565400123596],"min":[-1,-1,-0.9510565400123596],"type":"VEC3"},{"bufferView":6,"componentType":5126,"count":121,"max":[1.0499999523162842,1],"min":[-0.05000000074505806,0],"type":"VEC2"},{"bufferView":7,"componentType":5123,"count":540,"max":[120],"min":[0],"type":"SCALAR"},{"bufferView":8,"componentType":5126,"count":52,"max":[0.10000000149011612,0.5,0.10000000149011612],"min":[-0.10000000149011612,-0.5,-0.10000000149011612],"type":"VEC3"},{"bufferView":9,"componentType":5126,"count":52,"max":[1,1,1],"min":[-1,-1,-1],"type":"VEC3"},{"bufferView":10,"componentType":5126,"count":52,"max":[1,1],"min":[0,0],"type":"VEC2"},{"bufferView":11,"componentType":5123,"count":96,"max":[51],"min":[0],"type":"SCALAR"},{"bufferView":12,"componentType":5126,"count":52,"max":[0.10000000149011612,0.5,0.10000000149011612],"min":[-0.10000000149011612,-0.5,-0.10000000149011612],"type":"VEC3"},{"bufferView":13,"componentType":5126,"count":52,"max":[0.9987523555755615,1,0.9987523555755615],"min":[-0.9987523555755615,-1,-0.9987523555755615],"type":"VEC3"},{"bufferView":14,"componentType":5126,"count":52,"max":[1,1],"min":[0,0],"type":"VEC2"},{"bufferView":15,"componentType":5123,"count":96,"max":[51],"min":[0],"type":"SCALAR"}],"materials":[{"pbrMetallicRoughness":{"baseColorFactor":[0.8470588235294118,0.6980392156862745,0.6980392156862745,1],"metallicFactor":0.5,"roughnessFactor":0.2}},{"pbrMetallicRoughness":{"baseColorFactor":[0.5333333333333333,0.5333333333333333,0.5333333333333333,1],"metallicFactor":0.5,"roughnessFactor":0.2}},{"pbrMetallicRoughness":{"baseColorFactor":[0.2784313725490196,0.2784313725490196,0.7215686274509804,1],"metallicFactor":0.5,"roughnessFactor":0.2}},{"pbrMetallicRoughness":{"baseColorFactor":[1,0.2,0.2,1],"metallicFactor":0.5,"roughnessFactor":0.2}}],"meshes":[{"primitives":[{"mode":4,"attributes":{"POSITION":0,"NORMAL":1,"TEXCOORD_0":2},"indices":3,"material":0}]},{"primitives":[{"mode":4,"attributes":{"POSITION":4,"NORMAL":5,"TEXCOORD_0":6},"indices":7,"material":1}]},{"primitives":[{"mode":4,"attributes":{"POSITION":8,"NORMAL":9,"TEXCOORD_0":10},"indices":11,"material":0}]},{"primitives":[{"mode":4,"attributes":{"POSITION":12,"NORMAL":13,"TEXCOORD_0":14},"indices":15,"material":0}]},{"primitives":[{"mode":4,"attributes":{"POSITION":4,"NORMAL":5,"TEXCOORD_0":6},"indices":7,"material":2}]},{"primitives":[{"mode":4,"attributes":{"POSITION":4,"NORMAL":5,"TEXCOORD_0":6},"indices":7,"material":3}]}]}