{"asset":{"version":"2.0","generator":"THREE.GLTFExporter"},"scenes":[{"name":"AuxScene","nodes":[66]}],"scene":0,"nodes":[{"matrix":[1,0,0,0,0,1,0,0,0,0,1,0,-0.6104190349578857,0.5913673639297485,0.48637184500694275,1],"name":"backbone_264","mesh":0},{"matrix":[0.679042646779382,0.13529250731057904,0.10294175189172937,0,-0.057982506424559176,0.07431267934871555,0.28480811115607124,0,0.10294175189172937,-0.664552221639976,0.19435358327029054,0,0.08063242584466934,0.3918663263320923,0.889551043510437,1],"name":"nucleoside_264","mesh":1},{"matrix":[0.4344531443479056,0.8380807246201059,-0.32995620975383133,0,-0.6910990333966954,0.19951480713594158,-0.4032069409371592,0,-0.32995620975383133,0.4889602631501617,0.8074941107583697,0,-0.2648914158344269,0.4916168451309204,0.6879614591598511,1],"name":"connector_264","mesh":2},{"matrix":[0.3224741136557938,-0.9040338635043597,0.2805943797312054,0,0.7560577056699385,0.17250447900749222,-0.31311798890541204,0,0.2805943797312054,0.3744016668569614,0.8837930660309254,0,-0.2323901653289795,0.6776195764541626,0.3298128545284271,1],"name":"bbconnector_264","mesh":3},{"name":"element_264","children":[0,1,2,3]},{"matrix":[1,0,0,0,0,1,0,0,0,0,1,0,0.14563868939876556,0.7638717889785767,0.1732538640499115,1],"name":"backbone_263","mesh":0},{"matrix":[0.6993872004764087,0.023699078279235796,0.01720118703166067,0,-0.01015674841051949,0.09280422140018627,0.2851038896410646,0,0.01720118703166067,-0.6652423713991166,0.2171559585774027,0,0.3603183925151825,0.09711608290672302,0.6084154844284058,1],"name":"nucleoside_263","mesh":4},{"matrix":[0.9625258163677017,0.2603343085358176,-0.07596117951027281,0,-0.21467715901789203,0.666747754362138,-0.43515638320293343,0,-0.07596117951027281,0.5277046549541922,0.8460246432795202,0,0.25298044085502625,0.43049395084381104,0.39083465933799744,1],"name":"connector_263","mesh":2},{"matrix":[0.5445330680544131,-0.7153634068796109,0.43788006151046943,0,0.28788373698229586,0.04972457905362708,-0.2767677291503817,0,0.43788006151046943,0.687741196202154,0.579027729961922,0,0.2895805537700653,0.7887340784072876,0.034869998693466187,1],"name":"bbconnector_263","mesh":3},{"name":"element_263","children":[5,6,7,8]},{"matrix":[1,0,0,0,0,1,0,0,0,0,1,0,0.43352243304252625,0.8135963678359985,-0.10351386666297913,1],"name":"backbone_262","mesh":0},{"matrix":[0.6008259533104501,0.35219321007609045,0.07048468831996128,0,-0.15093995574377408,0.23602770303383408,0.10727561665157617,0,0.07048468831996128,-0.25030975797784494,0.6499053105845741,0,0.5889294147491455,1.414533257484436,-0.6465513110160828,1],"name":"nucleoside_262","mesh":4},{"matrix":[0.8691413406080368,0.18843558462534737,0.4572585179982127,0,-0.15538795555899432,-0.6008634243767511,0.5429710697314514,0,0.4572585179982127,-0.6584491738206282,-0.5977953102487845,0,0.5112278461456299,1.1140648126602173,-0.37503257393836975,1],"name":"connector_262","mesh":2},{"matrix":[0.9255016865469496,-0.19623276746791873,0.3239433928529678,0,0.15191652376366424,-0.37400812995232974,-0.6605834663551687,0,0.3239433928529678,0.8532852025240345,-0.4086133888014274,0,0.5094807147979736,0.6265922784805298,-0.4338056445121765,1],"name":"bbconnector_262","mesh":3},{"name":"element_262","children":[10,11,12,13]},{"matrix":[1,0,0,0,0,1,0,0,0,0,1,0,0.5854389667510986,0.43958818912506104,-0.7640973925590515,1],"name":"backbone_261","mesh":0},{"matrix":[0.44371172178871127,0.5331885889484789,0.0939669969088736,0,-0.2285094082352734,0.17539677746613044,0.08378199738947686,0,0.0939669969088736,-0.19549131614478824,0.6655473904791925,0,0.9161999225616455,1.193872094154358,-0.7280866503715515,1],"name":"nucleoside_261","mesh":4},{"matrix":[-0.8925108999347913,0.40121168737647395,-0.206042211690054,0,-0.33084761549554237,-0.7544814599420315,-0.03602017532973308,0,-0.206042211690054,0.043680881006178396,0.9775676890423237,0,0.7508213520050049,0.8167320489883423,-0.7460920214653015,1],"name":"connector_261","mesh":2},{"matrix":[0.6268785530069163,0.7629283313488848,-0.157998946438779,0,-0.6502838705169469,0.4772949111247606,-0.27536387215424124,0,-0.157998946438779,0.3230633712772182,0.9330950625407848,0,0.2602970600128174,0.678235650062561,-0.901779294013977,1],"name":"bbconnector_261","mesh":3},{"name":"element_261","children":[15,16,17,18]},{"matrix":[1,0,0,0,0,1,0,0,0,0,1,0,-0.06484486907720566,0.916883111000061,-1.0394612550735474,1],"name":"backbone_260","mesh":0},{"matrix":[0.6989061061935037,-0.03170928655838975,0.022907624075674947,0,0.01358969501074695,0.09393603717659903,-0.2845897977804152,0,0.022907624075674947,0.6640428237923619,0.2202779561886897,0,-0.36392858624458313,0.2829299867153168,-1.4737797975540161,1],"name":"nucleoside_260","mesh":1},{"matrix":[0.9256274955945893,-0.36269754304204227,-0.10800105518945458,0,0.2990880401471273,0.6339623195025378,0.4343248111473535,0,-0.10800105518945458,-0.5266962256593501,0.8431647822634432,0,-0.21438480913639069,0.5999084711074829,-1.2566205263137817,1],"name":"connector_260","mesh":2},{"matrix":[-0.0230294321592055,0.8313893274099087,0.5552130006579716,0,-0.5936202938542388,-0.23159030681421883,0.32216639545419073,0,0.5552130006579716,-0.4512071194393883,0.698677802994375,0,-0.36165499687194824,0.8010879755020142,-0.8783780336380005,1],"name":"bbconnector_260","mesh":3},{"name":"element_260","children":[20,21,22,23]},{"matrix":[1,0,0,0,0,1,0,0,0,0,1,0,-0.6584651470184326,0.6852928400039673,-0.7172948718070984,1],"name":"backbone_259","mesh":0},{"matrix":[0.6921424422150532,0.08440934085862976,-0.061756668589289646,0,-0.03617543385010209,0.08861299821485165,-0.2843221430733295,0,-0.061756668589289646,0.6634182961779472,0.21462119662812484,0,-0.5777156352996826,-0.008886728435754776,-1.155061960220337,1],"name":"nucleoside_259","mesh":1},{"matrix":[0.9947940256089527,0.0979198707878699,0.02822313048904368,0,-0.0807467897349643,0.6941561872818713,0.4377522846021524,0,0.02822313048904368,-0.5308526479632505,0.8469940428498077,0,-0.6180903911590576,0.338204950094223,-0.9361783862113953,1],"name":"connector_259","mesh":2},{"matrix":[0.06173665520370264,0.5438507071175991,0.8369080414905028,0,-0.3758392433131849,-0.47322091897823143,0.3352394471989091,0,0.8369080414905028,-0.48510157908367546,0.25349841939787865,0,-0.8463847637176514,0.44868239760398865,-0.5496751666069031,1],"name":"bbconnector_259","mesh":3},{"name":"element_259","children":[25,26,27,28]},{"matrix":[1,0,0,0,0,1,0,0,0,0,1,0,-1.0343043804168701,0.2120719701051712,-0.3820554316043854,1],"name":"backbone_258","mesh":0},{"matrix":[0.6620214623183416,0.17803196506157215,-0.14153511473505415,0,-0.07629941792905427,0.05766880074782589,-0.2843461312543351,0,-0.14153511473505415,0.6634742685971164,0.1725390532004827,0,-0.5776927471160889,-0.3147949278354645,-0.8223859667778015,1],"name":"nucleoside_258","mesh":1},{"matrix":[0.8129142540339114,0.5537335738327478,0.1804149518395377,0,-0.45662037843499753,0.5268769948048574,0.4403389641412556,0,0.1804149518395377,-0.5339894578236795,0.826017986142233,0,-0.8059985637664795,-0.051359567791223526,-0.6022207140922546,1],"name":"connector_258","mesh":2},{"matrix":[0.9677873250499189,0.0565045291287003,0.2453465475249672,0,-0.0403709441152358,-0.6436576194037482,0.30748367760037787,0,0.2453465475249672,-0.43036448114706083,-0.8686721446046661,0,-1.0544898509979248,-0.10975686460733414,-0.2283135950565338,1],"name":"bbconnector_258","mesh":3},{"name":"element_258","children":[30,31,32,33]},{"matrix":[1,0,0,0,0,1,0,0,0,0,1,0,-1.0746753215789795,-0.4315856993198395,-0.07457175850868225,1],"name":"backbone_257","mesh":0},{"matrix":[0.6356157630677969,0.21598901373552512,-0.19834649635543125,0,-0.09256672542704084,0.010532498670323283,-0.2851674562260203,0,-0.19834649635543125,0.6653906934222601,0.08896005384694888,0,-0.40514639019966125,-0.6371139287948608,-0.5098897814750671,1],"name":"nucleoside_257","mesh":1},{"matrix":[0.47231253659194294,0.811915564719115,0.3430947806904925,0,-0.6695226909453862,0.20552629622411253,0.43531400070344806,0,0.3430947806904925,-0.5278957942593578,0.7769247202182825,0,-0.7399089336395264,-0.5343498587608337,-0.2922307550907135,1],"name":"connector_257","mesh":2},{"matrix":[0.6071335856808844,-0.3300863814514301,-0.7227944243744417,0,0.18492126909478862,-0.40484996354290204,0.3402175838359912,0,-0.7227944243744417,-0.6072919124138529,-0.3297949655793744,0,-0.9822146892547607,-0.6340106725692749,0.09553703665733337,1],"name":"bbconnector_257","mesh":3},{"name":"element_257","children":[35,36,37,38]},{"matrix":[1,0,0,0,0,1,0,0,0,0,1,0,-0.889754056930542,-0.8364356756210327,0.265645831823349,1],"name":"backbone_256","mesh":0},{"matrix":[0.6407423611002616,0.19004498464689304,-0.20816367286977822,0,-0.08144785518644967,-0.03878880930795344,-0.2861148099811709,0,-0.20816367286977822,0.6676011853921301,-0.03124958960198609,0,-0.17429234087467194,-0.9119781255722046,-0.13725486397743225,1],"name":"nucleoside_256","mesh":1},{"matrix":[0.3103238915288955,0.8676751230883895,0.3883799545461386,0,-0.7155031982635803,0.07554683309325701,0.40292406276803605,0,0.3883799545461386,-0.4886172229641659,0.7812901052529639,0,-0.5320231914520264,-0.8742049932479858,0.06419548392295837,1],"name":"connector_256","mesh":2},{"matrix":[-0.09167885517220498,-0.6893714324047906,-0.7185833368815224,0,0.4838981229169731,-0.3963699398936221,0.3185196142885198,0,-0.7185833368815224,-0.45376973447936564,0.5270019112330147,0,-0.6478049755096436,-1.0346206426620483,0.4249056577682495,1],"name":"bbconnector_256","mesh":3},{"name":"element_256","children":[40,41,42,43]},{"matrix":[1,0,0,0,0,1,0,0,0,0,1,0,-0.4058559238910675,-1.232805609703064,0.5841654539108276,1],"name":"backbone_255","mesh":0},{"matrix":[0.678499775537644,0.10662811090812091,-0.13516095451536667,0,-0.0456977644118603,-0.0733666059741188,-0.2872787162091666,0,-0.13516095451536667,0.6703169664366218,-0.14968852501376054,0,0.2307712882757187,-0.8912872076034546,0.18636879324913025,1],"name":"nucleoside_255","mesh":1},{"matrix":[-0.017017655442487012,0.7719267544445074,0.6354837004735714,0,-0.63654707497475,-0.34147541018106264,0.3977465765376358,0,0.6354837004735714,-0.4823385983358577,0.6029178732478542,0,-0.08754231780767441,-1.0620445013046265,0.38526710867881775,1],"name":"connector_255","mesh":2},{"matrix":[0.11879355833559657,-0.9411848750259537,-0.316321219900388,0,0.9192009149663455,0.005123161221074609,0.32995986071835887,0,-0.316321219900388,-0.3378513067354376,0.8864521303654112,0,0.053744539618492126,-1.2302440404891968,0.7491453886032104,1],"name":"bbconnector_255","mesh":3},{"name":"element_255","children":[45,46,47,48]},{"matrix":[1,0,0,0,0,1,0,0,0,0,1,0,0.5133450031280518,-1.2276824712753296,0.9141253232955933,1],"name":"backbone_254","mesh":0},{"matrix":[0.6310683952214864,0.18221036956737305,-0.24197530264563383,0,-0.07809016281890867,-0.09358034312115243,-0.27412525952783184,0,-0.24197530264563383,0.6396255692557453,-0.14942252869660902,0,0.48750802874565125,-0.5357765555381775,0.4661272466182709,1],"name":"nucleoside_254","mesh":4},{"matrix":[0.9939036686297279,-0.031329508450055776,-0.10570694825937288,0,0.025834973136318943,-0.6918531343413806,0.44796386592765924,0,-0.10570694825937288,-0.5432360099175213,-0.8328988750181736,0,0.5004284381866455,-0.8817275762557983,0.6901262998580933,1],"name":"connector_254","mesh":2},{"matrix":[0.7965738874211112,-0.552000073300313,-0.24650751964782458,0,0.3635482531745538,0.32789230411251513,0.4405401893899189,0,-0.24650751964782458,-0.6689021738146259,0.7012873299667586,0,0.6951191425323486,-1.0637363195419312,1.1343953609466553,1],"name":"bbconnector_254","mesh":3},{"name":"element_254","children":[50,51,52,53]},{"matrix":[1,0,0,0,0,1,0,0,0,0,1,0,0.8768932819366455,-0.8997901678085327,1.3546655178070068,1],"name":"backbone_253","mesh":0},{"matrix":[0.6469125432457551,-0.17262254424534085,0.2042195039912392,0,0.0739810945904953,-0.05943836599588097,-0.28459426686361006,0,0.2042195039912392,0.6640532516525579,-0.08560206795084509,0,0.6673634052276611,-0.2148231565952301,0.9459360837936401,1],"name":"nucleoside_253","mesh":5},{"matrix":[0.6190481246589155,-0.2540657366350718,-0.7431217881083896,0,0.2095079624785648,-0.6848952470290229,0.40868661313353494,0,-0.7431217881083896,-0.49560534210859686,-0.44960565285830967,0,0.7721302509307861,-0.557306706905365,1.1503007411956787,1],"name":"connector_253","mesh":2},{"matrix":[0.9823768045931106,-0.18371957544278228,-0.03439376273882644,0,0.1542243944199621,0.7683143353927128,0.3009872561559265,0,-0.03439376273882644,-0.3585506114167458,0.9328764796608766,0,0.9540054798126221,-0.5156329870223999,1.5051591396331787,1],"name":"bbconnector_253","mesh":3},{"name":"element_253","children":[55,56,57,58]},{"matrix":[1,0,0,0,0,1,0,0,0,0,1,0,1.0311176776885986,-0.13147583603858948,1.6556527614593506,1],"name":"backbone_252","mesh":0},{"matrix":[0.630385387347457,-0.21638981041868394,0.21398527740090156,0,0.09273849544385965,-0.011731972389540192,-0.28506480630125197,0,0.21398527740090156,0.6651511769447305,0.0422400000433092,0,0.3706676661968231,0.1020561158657074,1.2205255031585693,1],"name":"nucleoside_252","mesh":1},{"matrix":[0.10520997332685056,-0.8008737509411219,-0.5895185347631866,0,0.6604173785276876,-0.23352046311015515,0.4351057496352736,0,-0.5895185347631866,-0.527643252731032,0.611604854245563,0,0.7008945941925049,-0.014707956463098526,1.43808913230896,1],"name":"connector_252","mesh":2},{"matrix":[0,0,0,0,0,0,0,0,0,0,0,0,0.17781566083431244,-0.1325935423374176,-0.8964488506317139,1],"name":"bbconnector_252","mesh":3},{"name":"element_252","children":[60,61,62,63]},{"name":"strand_2","children":[4,9,14,19,24,29,34,39,44,49,54,59,64]},{"name":"system_0","children":[65]}],"bufferViews":[{"buffer":0,"byteOffset":0,"byteLength":1452,"target":34962,"byteStride":12},{"buffer":0,"byteOffset":1452,"byteLength":1452,"target":34962,"byteStride":12},{"buffer":0,"byteOffset":2904,"byteLength":968,"target":34962,"byteStride":8},{"buffer":0,"byteOffset":3872,"byteLength":1080,"target":34963},{"buffer":0,"byteOffset":4952,"byteLength":1452,"target":34962,"byteStride":12},{"buffer":0,"byteOffset":6404,"byteLength":1452,"target":34962,"byteStride":12},{"buffer":0,"byteOffset":7856,"byteLength":968,"target":34962,"byteStride":8},{"buffer":0,"byteOffset":8824,"byteLength":1080,"target":34963},{"buffer":0,"byteOffset":9904,"byteLength":624,"target":34962,"byteStride":12},{"buffer":0,"byteOffset":10528,"byteLength":624,"target":34962,"byteStride":12},{"buffer":0,"byteOffset":11152,"byteLength":416,"target":34962,"byteStride":8},{"buffer":0,"byteOffset":11568,"byteLength":192,"target":34963},{"buffer":0,"byteOffset":11760,"byteLength":624,"target":34962,"byteStride":12},{"buffer":0,"byteOffset":12384,"byteLength":624,"target":34962,"byteStride":12},{"buffer":0,"byteOffset":13008,"byteLength":416,"target":34962,"byteStride":8},{"buffer":0,"byteOffset":13424,"byteLength":192,"target":34963}],"buffers":[{"byteLength":13616,"uri":"data:application/octet-stream;base64,"}],"accessors":[{"bufferView":0,"componentType":5126,"count":121,"max":[0.20000000298023224,0.20000000298023224,0.19021129608154297],"min":[-0.20000000298023224,-0.20000000298023224,-0.19021129608154297],"type":"VEC3"},{"bufferView":1,"componentType":5126,"count":121,"max":[1,1,0.9510565400123596],"min":[-1,-1,-0.9510565400123596],"type":"VEC3"},{"bufferView":2,"componentType":5126,"count":121,"max":[1.0499999523162842,1],"min":[-0.05000000074505806,0],"type":"VEC2"},{"bufferView":3,"componentType":5123,"count":540,"max":[120],"min":[0],"type":"SCALAR"},{"bufferView":4,"componentType":5126,"count":121,"max":[0.30000001192092896,0.30000001192092896,0.28531694412231445],"min":[-0.30000001192092896,-0.30000001192092896,-0.28531694412231445],"type":"VEC3"},{"bufferView":5,"componentType":5126,"count":121,"max":[1,1,0.9510565400123596],"min":[-1,-1,-0.9510565400123596],"type":"VEC3"},{"bufferView":6,"componentType":5126,"count":121,"max":[1.0499999523162842,1],"min":[-0.05000000074505806,0],"type":"VEC2"},{"bufferView":7,"componentType":5123,"count":540,"max":[120],"min":[0],"type":"SCALAR"},{"bufferView":8,"componentType":5126,"count":52,"max":[0.10000000149011612,0.5,0.10000000149011612],"min":[-0.10000000149011612,-0.5,-0.10000000149011612],"type":"VEC3"},{"bufferView":9,"componentType":5126,"count":52,"max":[1,1,1],"min":[-1,-1,-1],"type":"VEC3"},{"bufferView":10,"componentType":5126,"count":52,"max":[1,1],"min":[0,0],"type":"VEC2"},{"bufferView":11,"componentType":5123,"count":96,"max":[51],"min":[0],"type":"SCALAR"},{"bufferView":12,"componentType":5126,"count":52,"max":[0.10000000149011612,0.5,0.10000000149011612],"min":[-0.10000000149011612,-0.5,-0.10000000149011612],"type":"VEC3"},{"bufferView":13,"componentType":5126,"count":52,"max":[0.9987523555755615,1,0.9987523555755615],"min":[-0.9987523555755615,-1,-0.9987523555755615],"type":"VEC3"},{"bufferView":14,"componentType":5126,"count":52,"max":[1,1],"min":[0,0],"type":"VEC2"},{"bufferView":15,"componentType":5123,"count":96,"max":[51],"min":[0],"type":"SCALAR"}],"materials":[{"pbrMetallicRoughness":{"baseColorFactor":[1,0.7058823529411765,0.8549019607843137,1],"metallicFactor":0.5,"roughnessFactor":0.8}},{"pbrMetallicRoughness":{"baseColorFactor":[0.5333333333333333,0.5333333333333333,0.5333333333333333,1],"metallicFactor":0.5,"roughnessFactor":0.8}},{"pbrMetallicRoughness":{"baseColorFactor":[0.2784313725490196,0.2784313725490196,0.7215686274509804,1],"metallicFactor":0.5,"roughnessFactor":0.8}},{"pbrMetallicRoughness":{"baseColorFactor":[1,0.2,0.2,1],"metallicFactor":0.5,"roughnessFactor":0.8}}],"meshes":[{"primitives":[{"mode":4,"attributes":{"POSITION":0,"NORMAL":1,"TEXCOORD_0":2},"indices":3,"material":0}]},{"primitives":[{"mode":4,"attributes":{"POSITION":4,"NORMAL":5,"TEXCOORD_0":6},"indices":7,"material":1}]},{"primitives":[{"mode":4,"attributes":{"POSITION":8,"NORMAL":9,"TEXCOORD_0":10},"indices":11,"material":0}]},{"primitives":[{"mode":4,"attributes":{"POSITION":12,"NORMAL":13,"TEXCOORD_0":14},"indices":15,"material":0}]},{"primitives":[{"mode":4,"attributes":{"POSITION":4,"NORMAL":5,"TEXCOORD_0":6},"indices":7,"material":2}]},{"primitives":[{"mode":4,"attributes":{"POSITION":4,"NORMAL":5,"TEXCOORD_0":6},"indices":7,"material":3}]}]}